<svg xmlns:mydata="http://www.w3.org/2000/svg" mydata:contrastcolor="ffffff" mydata:template="BlackAndHighlightColorHex1" mydata:presentation="2.5" mydata:layouttype="undefined" mydata:specialfontid="undefined" mydata:id1="070" mydata:id2="911" mydata:companyname="critik8s" mydata:companytagline="" version="1.1" xmlns="http://www.w3.org/2000/svg" xmlns:xlink="http://www.w3.org/1999/xlink" viewBox="0 0 550 470"><g fill="#df4661" fill-rule="none" stroke="none" stroke-width="1" stroke-linecap="butt" stroke-linejoin="miter" stroke-miterlimit="10" stroke-dasharray="" stroke-dashoffset="0" font-family="none" font-weight="none" font-size="none" text-anchor="none" style="mix-blend-mode: normal"><g data-paper-data="{&quot;isGlobalGroup&quot;:true,&quot;bounds&quot;:{&quot;x&quot;:83.59204520897217,&quot;y&quot;:115.00000000000003,&quot;width&quot;:382.8159095820556,&quot;height&quot;:239.99999999999997}}"><g data-paper-data="{&quot;isPrimaryText&quot;:true}" fill-rule="nonzero"><path d="M136.95207,343.02314c1.28982,-1.75046 -1.10556,-3.59306 -2.39537,-1.75046c-2.30324,2.94815 -5.34352,5.43565 -8.66019,7.09399c-18.79446,9.48936 -39.89217,-4.69862 -39.33939,-25.05928c0.36852,-14.92502 9.3051,-24.32225 22.29539,-26.3491c10.04214,-1.19769 17.32039,-0.46065 24.7829,7.64677c1.38195,1.47408 3.59306,-0.18426 2.21111,-1.84259c-7.92316,-8.47593 -16.58335,-10.2264 -27.45466,-8.84445c-14.46437,2.30324 -24.41438,13.72733 -24.7829,29.29725c-0.73704,23.03243 22.75604,38.41809 43.57736,27.91531c3.96158,-1.93472 7.27825,-4.60649 9.76575,-8.10742z" data-paper-data="{&quot;glyphName&quot;:&quot;C&quot;,&quot;glyphIndex&quot;:0,&quot;firstGlyphOfWord&quot;:true,&quot;word&quot;:1}"></path><path d="M151.69282,297.60318h21.83474c12.62177,0 20.17641,7.27825 20.26854,16.30696c0.18426,8.3838 -5.98843,15.2014 -20.26854,15.2014h-21.83474zM173.25118,331.78331l20.72919,21.83474c1.47408,1.47408 3.4088,-0.55278 1.93472,-2.11898l-19.07085,-19.62363c13.45094,-1.01343 20.08428,-8.01529 20.08428,-17.9653c0,-10.41066 -7.92316,-19.16298 -23.49308,-19.16298h-23.21669c-0.9213,0 -1.56621,0.64491 -1.56621,1.56621v55.92274c0,1.93472 3.04028,1.93472 3.04028,-0.09213v-20.36067z" data-paper-data="{&quot;glyphName&quot;:&quot;R&quot;,&quot;glyphIndex&quot;:1,&quot;word&quot;:1}"></path><path d="M211.11649,351.86759c0,2.11898 3.31667,2.11898 3.31667,0v-55.92274c0,-2.30324 -3.31667,-2.30324 -3.31667,0z" data-paper-data="{&quot;glyphName&quot;:&quot;I&quot;,&quot;glyphIndex&quot;:2,&quot;word&quot;:1}"></path><path d="M224.38317,294.74716c-2.21111,0 -2.21111,2.76389 0,2.76389h23.76947v54.5408c0,1.19769 0.82917,1.75046 1.56621,1.75046c0.73704,0 1.65834,-0.55278 1.65834,-1.75046l-0.09213,-54.5408h23.8616c2.21111,0 2.21111,-2.76389 0,-2.76389c-16.95187,0 -33.90374,0 -50.76348,0z" data-paper-data="{&quot;glyphName&quot;:&quot;T&quot;,&quot;glyphIndex&quot;:3,&quot;word&quot;:1}"></path><path d="M285.64944,351.86759c0,2.11898 3.31667,2.11898 3.31667,0v-55.92274c0,-2.30324 -3.31667,-2.30324 -3.31667,0z" data-paper-data="{&quot;glyphName&quot;:&quot;I&quot;,&quot;glyphIndex&quot;:4,&quot;word&quot;:1}"></path><path d="M308.95826,330.2171v-34.45652c0,-0.82917 -0.64491,-1.56621 -1.56621,-1.56621c-0.82917,0 -1.56621,0.73704 -1.56621,1.56621v56.56765c0,0.82917 0.73704,1.47408 1.56621,1.47408c0.9213,0 1.56621,-0.64491 1.56621,-1.47408v-18.51807l12.25325,-10.87131l29.02086,30.40281c1.38195,1.47408 3.86945,-0.55278 2.21111,-2.02685l-29.02086,-30.31068l27.45466,-24.32225c1.47408,-1.38195 -0.82917,-3.50093 -2.39537,-2.11898z" data-paper-data="{&quot;glyphName&quot;:&quot;K&quot;,&quot;glyphIndex&quot;:5,&quot;word&quot;:1}"></path><path d="M382.47778,355c11.33196,0 23.67734,-4.05371 23.67734,-17.50465c0,-7.46251 -5.34352,-12.7139 -12.99029,-13.81946c6.8176,-1.65834 11.42409,-6.08056 11.42409,-13.72733c0,-2.67176 -0.73704,-4.88288 -1.75046,-6.8176c-3.68519,-7.18612 -12.89816,-9.48936 -20.17641,-9.48936c-7.37038,0 -16.67548,2.21111 -20.4528,9.48936c-1.01343,1.93472 -1.65834,4.14584 -1.65834,6.8176c0,7.27825 4.88288,12.16112 11.33196,13.81946c-7.46251,1.19769 -12.89816,5.8963 -12.89816,13.6352c0,13.72733 12.52964,17.50465 23.49308,17.59678zM382.56991,324.96571c10.31853,0 20.82132,2.11898 20.82132,12.62177c0,11.60835 -12.16112,14.92502 -20.82132,14.92502c-8.75232,0 -20.82132,-3.68519 -20.82132,-14.92502c0,-10.59492 10.41066,-12.62177 20.82132,-12.62177zM382.47778,322.7546c-9.95001,0 -19.25511,-2.57963 -19.25511,-12.62177c0,-1.10556 0.09213,-2.21111 0.55278,-3.31667c4.14584,-14.00372 33.44309,-14.00372 37.58893,0c0.36852,1.10556 0.46065,2.21111 0.46065,3.31667c0,10.04214 -9.39723,12.62177 -19.34724,12.62177z" data-paper-data="{&quot;glyphName&quot;:&quot;8&quot;,&quot;glyphIndex&quot;:6,&quot;word&quot;:1}"></path><path d="M413.52549,341.08841c2.94815,10.68705 17.22826,13.26668 26.62549,13.26668c11.1477,0 26.25697,-3.68519 26.25697,-17.22826c0,-24.13799 -48.64449,-5.71204 -48.64449,-26.80975c0,-1.01343 0.18426,-2.21111 0.64491,-3.13241c2.39537,-7.00186 11.97686,-9.67362 18.6102,-10.13427c0.73704,0 1.47408,-0.09213 2.21111,-0.09213c7.83103,0 19.25511,1.19769 22.38752,9.85788c0.64491,1.84259 3.50093,1.19769 2.57963,-1.01343c-3.50093,-9.58149 -16.21483,-11.60835 -25.05928,-11.60835c-2.57963,0 -5.25139,0.27639 -7.7389,0.73704c-7.7389,1.65834 -16.67548,6.17269 -16.67548,15.29353c0,24.87503 48.64449,5.80417 48.64449,26.99401c0,11.42409 -14.09585,14.5565 -23.21669,14.5565c-1.38195,0 -2.94815,-0.09213 -4.3301,-0.27639c-6.90973,-0.64491 -17.32039,-3.50093 -19.5315,-11.1477c-0.55278,-1.93472 -3.31667,-1.10556 -2.76389,0.73704z" data-paper-data="{&quot;glyphName&quot;:&quot;S&quot;,&quot;glyphIndex&quot;:7,&quot;lastGlyphOfWord&quot;:true,&quot;word&quot;:1}"></path></g><g data-paper-data="{&quot;isIcon&quot;:&quot;true&quot;,&quot;iconType&quot;:&quot;icon&quot;,&quot;rawIconId&quot;:&quot;1806038&quot;,&quot;selectedEffects&quot;:{&quot;container&quot;:&quot;&quot;,&quot;transformation&quot;:&quot;&quot;,&quot;pattern&quot;:&quot;&quot;},&quot;isDetailed&quot;:false,&quot;fillRule&quot;:&quot;evenodd&quot;,&quot;bounds&quot;:{&quot;x&quot;:201.4054651492064,&quot;y&quot;:115.00000000000003,&quot;width&quot;:147.1890697015872,&quot;height&quot;:147.18906970158716},&quot;iconStyle&quot;:&quot;standalone&quot;,&quot;suitableAsStandaloneIcon&quot;:true}" fill-rule="evenodd"><path d="M238.20273,188.58902c0,-30.47918 24.72224,-55.19038 55.1959,-55.19038c28.58044,0 52.08285,21.72327 54.90888,49.55488c0.14351,1.86746 0.28702,3.73676 0.28702,5.64102c0,40.64258 -32.95195,73.59453 -73.59453,73.59453c-40.64258,0 -73.59453,-32.95195 -73.59453,-73.59453c0,-40.64258 32.95195,-73.59453 73.59453,-73.59453c11.66657,0 22.6616,2.79107 32.46623,7.62439c-4.53894,-0.96593 -9.23979,-1.49213 -14.0676,-1.49213c-37.24932,0 -67.45822,30.19915 -67.46227,67.44939v0.01288c0.00294,27.09309 21.96981,49.05628 49.06364,49.05628c27.09383,0 49.05333,-21.96319 49.06364,-49.05628v-0.01288c-0.01141,-20.31246 -16.47285,-36.78439 -36.79727,-36.78439c-20.32129,0 -36.79727,16.4815 -36.79727,36.79727c0,13.55243 10.98398,24.52906 24.5309,24.52906c13.54691,0 24.5309,-10.97846 24.5309,-24.5309c0,-6.7799 -5.49015,-12.26637 -12.26453,-12.26637c-6.77438,0 -12.26637,5.48647 -12.26637,12.26637h12.26637c0,6.7799 -5.49199,12.26637 -12.26637,12.26637c-6.77438,0 -12.26637,-5.48647 -12.26637,-12.26637c0,-13.53955 10.98582,-24.5309 24.53274,-24.5309c13.55243,0 24.5309,10.99134 24.5309,24.52722c-0.00552,20.32129 -16.47598,36.79727 -36.79727,36.79727c-20.32129,0 -36.79727,-16.47598 -36.79727,-36.79727z" data-paper-data="{&quot;isPathIcon&quot;:true}"></path></g></g></g></svg>